HIERARCHY
ROOT WRIST
{
	OFFSET 0.000000 0.000000 0.000000
	CHANNELS 6 Xposition Yposition Zposition Yrotation Xrotation Zrotation
	JOINT THUMB_CMC_FE
	{
		OFFSET 0.225143 0.117753 -0.062308
		CHANNELS 3 Yrotation Xrotation Zrotation
		JOINT THUMB_CMC_AA
		{
			OFFSET 0.212856 -0.150507 0.098851
			CHANNELS 3 Yrotation Xrotation Zrotation
			JOINT THUMB_MCP_FE
			{
				OFFSET -0.322503 -0.167445 -0.031436
				CHANNELS 3 Yrotation Xrotation Zrotation
				JOINT THUMB_IP_FE
				{
					OFFSET 0.295233 -0.236404 0.025845
					CHANNELS 3 Yrotation Xrotation Zrotation
					End Site
					{
						OFFSET 0.000000 0.000000 0.000000
					}
				}
			}
		}
	}
	JOINT INDEX_MCP
	{
		OFFSET 1.076913 0.264198 -0.014768
		CHANNELS 3 Yrotation Xrotation Zrotation
		JOINT INDEX_PIP_FE
		{
			OFFSET 0.425053 0.013289 0.013619
			CHANNELS 3 Yrotation Xrotation Zrotation
			JOINT INDEX_DIP_FE
			{
				OFFSET 0.271505 -0.024898 0.000550
				CHANNELS 3 Yrotation Xrotation Zrotation
				End Site
				{
					OFFSET 0.000000 0.000000 0.000000
				}
			}
		}
	}
	JOINT MIDDLE_MCP
	{
		OFFSET 1.072991 0.019362 0.038780
		CHANNELS 3 Yrotation Xrotation Zrotation
		JOINT MIDDLE_PIP_FE
		{
			OFFSET 0.480704 0.002618 0.028696
			CHANNELS 3 Yrotation Xrotation Zrotation
			JOINT MIDDLE_DIP_FE
			{
				OFFSET 0.307486 -0.031129 -0.000643
				CHANNELS 3 Yrotation Xrotation Zrotation
				End Site
				{
					OFFSET 0.000000 0.000000 0.000000
				}
			}
		}
	}
	JOINT RING_MCP
	{
		OFFSET 0.994992 -0.195930 -0.005938
		CHANNELS 3 Yrotation Xrotation Zrotation
		JOINT RING_PIP_FE
		{
			OFFSET 0.436995 0.003792 0.019994
			CHANNELS 3 Yrotation Xrotation Zrotation
			JOINT RING_DIP_FE
			{
				OFFSET 0.295558 -0.038341 -0.006642
				CHANNELS 3 Yrotation Xrotation Zrotation
				End Site
				{
					OFFSET 0.000000 0.000000 0.000000
				}
			}
		}
	}
	JOINT PINKY_MCP
	{
		OFFSET 0.873858 -0.393246 -0.086282
		CHANNELS 3 Yrotation Xrotation Zrotation
		JOINT PINKY_PIP_FE
		{
			OFFSET 0.343972 -0.016492 0.013445
			CHANNELS 3 Yrotation Xrotation Zrotation
			JOINT PINKY_DIP_FE
			{
				OFFSET 0.224713 -0.036309 -0.010265
				CHANNELS 3 Yrotation Xrotation Zrotation
				End Site
				{
					OFFSET 0.000000 0.000000 0.000000
				}
			}
		}
	}
}
MOTION
Frames: 8
Frame Time: 0.008333334
2.083005 3.736264 3.887418 61.051170 -20.721410 16.050250 61.461180 4.834478 68.690980 119.352900 -30.976930 42.774160 -112.863900 -65.843230 -25.071960 4.562071 -8.459839 -14.720980 -168.079300 3.331566 -174.172600 -41.978150 -86.125610 27.488510 -2.052612 1.704994 -71.874450 -163.850400 -2.308075 -174.052000 -39.240020 -88.411320 -5.345612 -6.002502 4.395426 -1.298462 177.503400 -4.931458 -171.634900 -31.479430 -85.617740 -1.708496 0.199300 0.562913 4.968524 151.383700 -2.587952 -157.082000 -48.977480 -83.530610 4.570848 5.539822 0.809171 -11.287510 
2.084598 3.704063 3.886904 60.901010 -21.092500 15.680110 61.461190 4.834456 68.943270 119.352900 -30.976930 42.994080 -112.863900 -65.843230 -24.767820 4.562083 -8.459869 -16.928530 -168.025700 3.330697 -174.243000 -41.978030 -86.125550 27.338200 -2.052612 1.704991 -71.840180 -163.735200 -2.318542 -174.123900 -39.239870 -88.411190 -5.363403 -6.002533 4.395457 -1.550598 177.725800 -4.987305 -171.774100 -31.479490 -85.617830 -1.335419 0.199312 0.562935 4.968529 151.383700 -2.587952 -157.016200 -48.977540 -83.530610 4.317361 5.539803 0.809163 -11.179930 
2.084360 3.674063 3.887016 60.753280 -21.260930 15.265760 61.461200 4.834473 69.013570 119.352900 -30.976900 43.281290 -112.864000 -65.843260 -24.420650 4.562092 -8.459839 -18.594700 -167.915900 3.328910 -174.296100 -41.978060 -86.125700 27.232990 -2.052612 1.704999 -72.220760 -163.484500 -2.341309 -174.112100 -39.240390 -88.411440 -5.102539 -6.002533 4.395445 -1.584900 178.107500 -5.082886 -171.840000 -31.479430 -85.617830 -0.908020 0.199319 0.562930 4.968533 151.383700 -2.587952 -157.185600 -48.977420 -83.530610 4.783219 5.539795 0.809175 -12.413090 
2.088198 3.646275 3.890671 61.008150 -21.493440 14.762480 61.461180 4.834482 68.321630 119.352900 -30.976930 42.585950 -112.863900 -65.843230 -24.837590 4.562079 -8.459839 -14.428440 -168.424900 3.337107 -174.280200 -41.978060 -86.125610 27.171250 -2.052643 1.705001 -72.220250 -164.048800 -2.290039 -174.135000 -39.240540 -88.411560 -5.248047 -6.002533 4.395422 -2.323517 177.906100 -5.032471 -171.865700 -31.479430 -85.617680 -0.534454 0.199309 0.562927 4.968523 151.383700 -2.587952 -157.416800 -48.977510 -83.530610 5.774620 5.539818 0.809184 -13.063600 
2.085826 3.618558 3.891617 60.714600 -21.603760 14.432450 61.461190 4.834475 68.598250 119.352900 -30.976930 42.879810 -112.864000 -65.843230 -25.208070 4.562079 -8.459869 -14.346470 -168.071900 3.331460 -174.311400 -41.977810 -86.125610 27.197550 -2.052643 1.704997 -72.311920 -163.405700 -2.348450 -174.145100 -39.240570 -88.411440 -4.370911 -6.002502 4.395424 -2.329742 178.777900 -5.250214 -172.124400 -31.479280 -85.617860 0.855502 0.199302 0.562924 4.968517 151.383700 -2.587952 -157.192200 -48.977510 -83.530550 4.690992 5.539814 0.809178 -12.508360 
2.084670 3.592221 3.893489 60.556710 -21.851500 14.063360 61.461170 4.834472 68.657460 119.352900 -30.976930 42.728970 -112.864000 -65.843260 -25.268550 4.562089 -8.459839 -13.969300 -168.187100 3.333309 -174.422700 -41.978030 -86.125520 26.812720 -2.052643 1.704994 -73.111300 -163.335500 -2.354797 -174.270500 -39.240540 -88.411320 -4.003906 -6.002502 4.395445 -2.603363 178.971800 -5.298431 -172.205100 -31.479430 -85.617740 1.032534 0.199304 0.562916 4.968529 151.383700 -2.587952 -157.289900 -48.977480 -83.530580 4.276909 5.539807 0.809176 -12.076510 
2.083622 3.570266 3.895624 60.561530 -21.915860 13.564720 61.461180 4.834478 68.465290 119.352900 -30.976930 42.616990 -112.864000 -65.843200 -24.566470 4.562074 -8.459839 -14.670200 -168.489900 3.338145 -174.437200 -41.978090 -86.125550 26.826290 -2.052612 1.705003 -72.921780 -163.578500 -2.332794 -174.303400 -39.241060 -88.411560 -4.167206 -6.002502 4.395441 -2.991486 178.986400 -5.302094 -172.370300 -31.479370 -85.617740 1.292408 0.199296 0.562937 4.968532 151.383700 -2.587952 -157.354900 -48.977540 -83.530610 4.403155 5.539796 0.809169 -11.888400 
2.077879 3.546456 3.894770 60.126770 -21.875460 13.287010 61.461190 4.834466 69.067260 119.352900 -30.976930 43.167930 -112.863900 -65.843260 -24.649080 4.562091 -8.459839 -17.063260 -168.278900 3.334776 -174.513700 -41.978240 -86.125670 26.477180 -2.052612 1.705005 -73.098080 -163.167600 -2.369995 -174.363100 -39.240300 -88.411440 -4.069580 -6.002502 4.395435 -2.557770 179.537800 -5.438873 -172.430300 -31.479130 -85.617800 1.543420 0.199293 0.562920 4.968531 151.383700 -2.587952 -157.276600 -48.977480 -83.530610 3.374851 5.539814 0.809185 -11.032440 
